<?xml version="1.0" encoding="utf-8"?>
<!-- Generator: Adobe Illustrator 28.3.0, SVG Export Plug-In . SVG Version: 6.00 Build 0)  -->
<svg version="1.1" id="Capa_1" xmlns="http://www.w3.org/2000/svg" xmlns:xlink="http://www.w3.org/1999/xlink" x="0px" y="0px"
	 viewBox="0 0 1000 251.9" style="enable-background:new 0 0 1000 251.9;" xml:space="preserve">
<style type="text/css">
	.st0{fill:#FFFFFF;}
	.st1{fill:#3C3F44;}
	.st2{fill:#5BA4C0;}
	.st3{fill:#5BA4C0;stroke:#5BA4C0;stroke-width:7.6889;stroke-miterlimit:10;}
	.st4{fill:#3C3F44;stroke:#3C3F44;stroke-width:7.6889;stroke-miterlimit:10;}
</style>
<g>
	<g>
		<g id="Logo_00000127008669113623699550000003611881791186957229_">
			<g>
				<g id="woot-log_00000150084749864542817600000003803397712559055774_">
					<circle id="Oval_00000015327106913103295700000003420221865277472441_" class="st0" cx="123.2" cy="139.5" r="97.6"/>
				</g>
			</g>
		</g>
		<g>
			<path class="st1" d="M157.1,156.4c-1.2,2.8,2.8,0.6,3.4,0.2c2.1-1.4,4.3-2.8,6.4-4.2c4.2-2.9,8.3-6,12.1-9.5
				c6-5.6,11-12.5,13.2-20.4c2.8-10,0.2-19.2-6.3-27c-8.4-10-18.4-13.6-22.4-5.4c-2.5,5.2,3.6,14,3.8,31.6
				C167.4,132.3,160.3,149.3,157.1,156.4z"/>
			<path class="st2" d="M110,109.3c2.7-1.4-1.9-2.2-2.6-2.3c-2.6-0.2-5.1-0.4-7.7-0.5c-5.1-0.3-10.2-0.3-15.3,0.2
				c-8.1,0.8-16.3,3.3-22.8,8.2c-8.3,6.2-11.8,15.1-11.3,25.3c0.6,13,6.4,22,14.5,17.9c5.2-2.6,5.7-13.3,16.2-27.4
				C87.1,122.2,103.1,113,110,109.3z"/>
			<path class="st2" d="M92,144.2c-0.4-3-2.7,0.9-3.1,1.6c-1.1,2.3-2.2,4.6-3.3,7c-2.1,4.7-4.1,9.4-5.4,14.3
				c-2.2,7.9-3,16.3-0.8,24.2c2.8,10,9.7,16.5,19.3,19.8c12.3,4.3,22.8,2.1,22-6.9c-0.5-5.8-10.3-10.2-19.5-25.1
				C95.6,170.2,92.9,152,92,144.2z"/>
			<path class="st2" d="M150.5,114.9c2.3,2,1.5-2.5,1.3-3.2c-0.7-2.5-1.4-4.9-2.1-7.4c-1.5-4.9-3.2-9.8-5.4-14.4
				c-3.5-7.4-8.6-14.2-15.4-18.7c-8.7-5.7-18.2-6-27.6-2.1C89.2,74,82.7,82.6,89.3,88.8c4.2,4,14.4,0.8,31.2,6
				C130.6,97.8,144.7,109.7,150.5,114.9z"/>
		</g>
	</g>
	<g>
		<path class="st3" d="M318.7,146.5c0-2.5-0.2-4.5-0.6-6c-0.4-1.5-1.3-2.5-2.7-3.2c-1.4-0.7-3.6-1.2-6.5-1.4
			c-2.9-0.2-7-0.4-12.1-0.4l-23.8-0.3c-5.9-0.1-10.6-0.4-14.2-1.1c-3.6-0.6-6.3-1.6-8.1-3c-1.8-1.4-3-3.2-3.7-5.5
			c-0.6-2.3-0.9-5.1-0.9-8.6c0-3.7,0.4-6.8,1.3-9.2c0.8-2.4,2.4-4.3,4.6-5.7c2.2-1.4,5.3-2.3,9.4-2.9c4.1-0.6,9.3-0.8,15.7-0.8h18.3
			c5.8,0,10.7,0.2,14.6,0.6c3.9,0.4,7,1.2,9.2,2.6c2.3,1.3,3.9,3.4,4.9,6.2s1.5,6.7,1.5,11.6h-8.2c0-3.8-0.4-6.7-1.1-8.7
			c-0.7-2-1.9-3.3-3.6-4c-1.7-0.7-3.9-1.1-6.7-1.2s-6.3-0.1-10.5-0.1h-17.9c-5.1,0-9.2,0.1-12.3,0.3c-3.1,0.2-5.4,0.7-7,1.4
			c-1.6,0.7-2.6,1.9-3.1,3.4c-0.5,1.6-0.8,3.7-0.8,6.5c0,2.3,0.2,4.2,0.6,5.6c0.4,1.4,1.2,2.5,2.5,3.2s3.3,1.2,6,1.5
			c2.7,0.3,6.4,0.4,11.1,0.5l25.5,0.3c6,0.1,10.8,0.4,14.4,1c3.6,0.6,6.3,1.6,8,3s3,3.2,3.6,5.5c0.6,2.3,0.9,5.3,0.9,8.8
			c0,3.9-0.4,7.1-1.1,9.7c-0.7,2.6-2.1,4.7-4.2,6.3c-2.1,1.6-5.1,2.7-9,3.4c-3.9,0.7-9.1,1-15.5,1h-20c-5.8,0-10.8-0.3-14.7-0.8
			c-4-0.5-7.1-1.5-9.5-3.1c-2.4-1.6-4-3.9-5.1-7c-1-3.1-1.5-7.2-1.5-12.3h8.2c0,4,0.3,7.1,1,9.3c0.7,2.2,1.8,3.8,3.4,4.7
			c1.6,1,3.9,1.5,6.9,1.7c3,0.2,6.7,0.3,11.3,0.3h19.6c5.1,0,9.1-0.2,12.1-0.5c3-0.3,5.2-1,6.6-1.9c1.4-0.9,2.3-2.3,2.8-4
			C318.4,151.6,318.7,149.3,318.7,146.5z"/>
		<path class="st3" d="M372.7,166.8c-6.4,0-11.7-0.4-15.8-1.3c-4.1-0.9-7.4-2.5-9.7-4.8c-2.3-2.3-4-5.7-4.9-10.1
			c-0.9-4.4-1.4-10.1-1.4-17.2V99.7h8.2v33.7c0,4.9,0.2,8.9,0.5,12.1c0.3,3.2,1,5.7,1.9,7.7c0.9,1.9,2.3,3.3,4,4.3
			c1.8,0.9,4,1.6,6.8,1.8c2.8,0.3,6.2,0.4,10.3,0.4h15.5c4.1,0,7.5-0.1,10.3-0.4c2.8-0.3,5.1-0.9,6.8-1.8s3.1-2.4,4-4.3
			s1.6-4.5,1.9-7.7c0.3-3.2,0.5-7.2,0.5-12.1V99.7h8.2v33.7c0,7-0.5,12.8-1.4,17.2c-0.9,4.4-2.6,7.8-4.9,10.1
			c-2.3,2.3-5.6,3.9-9.7,4.8c-4.1,0.9-9.4,1.3-15.8,1.3H372.7z"/>
		<path class="st3" d="M437.2,99.7h44c6.4,0,11.6,0.3,15.5,0.9c3.9,0.6,6.9,1.6,8.9,3c2,1.4,3.4,3.3,4.1,5.7
			c0.7,2.4,1.1,5.5,1.1,9.2v1.7c0,3.4-0.4,6.4-1.2,8.8c-0.8,2.5-2.4,4.5-4.7,6c-2.3,1.5-5.7,2.6-10.3,3.2l14.3,27.2h-8.2l-14-26.6
			c-0.6,0-1.2,0-1.8,0c-0.6,0-1.2,0-1.9,0h-37.6v26.6h-8.2V99.7z M445.4,131.8h36.3c4.9,0,8.7-0.2,11.5-0.5c2.8-0.3,4.9-0.9,6.2-1.7
			c1.3-0.8,2.2-2,2.5-3.5c0.4-1.5,0.6-3.5,0.6-5.9v-1.7c0-2.7-0.3-4.9-0.8-6.4c-0.5-1.6-1.5-2.7-3.1-3.5c-1.5-0.7-3.8-1.2-6.9-1.4
			c-3.1-0.2-7.1-0.3-12.2-0.3h-34.2V131.8z"/>
		<path class="st4" d="M598,152.8c-0.7,2.3-2,3.9-3.7,4.9c-1.8,1-4.1,1.6-7.2,1.8c-3,0.2-6.8,0.3-11.4,0.3h-17.2
			c-4.1,0-7.5-0.1-10.3-0.4c-2.8-0.3-5.1-0.9-6.8-1.8c-1.8-0.9-3.1-2.4-4-4.3c-0.9-1.9-1.6-4.5-1.9-7.7c-0.3-3.2-0.5-7.2-0.5-12.1
			v-1.7c0-5,0.2-9.2,0.5-12.4c0.3-3.3,1-5.8,1.9-7.7c0.9-1.9,2.3-3.3,4-4.1c1.8-0.9,4-1.4,6.8-1.7c2.8-0.2,6.2-0.4,10.3-0.4h17.2
			c4.6,0,8.4,0.1,11.4,0.4c3,0.2,5.4,0.9,7.2,1.9s3,2.7,3.7,5s1.1,5.5,1.1,9.7h8.2c0-5.2-0.6-9.5-1.7-12.6c-1.1-3.2-2.9-5.6-5.4-7.2
			c-2.5-1.6-5.7-2.7-9.8-3.3c-4-0.6-9-0.8-14.9-0.8h-17.2c-5.1,0-9.5,0.2-13.2,0.7s-6.7,1.4-9.1,2.7s-4.3,3.2-5.7,5.7
			c-1.4,2.5-2.4,5.7-3,9.7c-0.6,4-0.9,8.8-0.9,14.7v1.7c0,7,0.5,12.8,1.4,17.2c0.9,4.4,2.6,7.8,4.9,10.1c2.3,2.3,5.6,3.9,9.7,4.8
			c4.1,0.9,9.4,1.3,15.8,1.3h17.2c5.9,0,10.8-0.3,14.9-0.8c4-0.5,7.3-1.6,9.8-3.1c2.5-1.6,4.3-3.9,5.4-7.1c1.1-3.1,1.7-7.3,1.7-12.6
			h-8.2C599.1,147.4,598.7,150.6,598,152.8z"/>
		<polygon class="st4" points="632.3,158.6 632.3,99.7 624.1,99.7 624.1,165.5 684.4,165.5 684.4,158.6 		"/>
		<polygon class="st4" points="706.5,158.6 706.5,135.3 760.5,135.3 760.5,128.5 706.5,128.5 706.5,106.6 762.9,106.6 762.9,99.7 
			698.3,99.7 698.3,165.5 764.1,165.5 764.1,158.6 		"/>
		<path class="st4" d="M825.8,99.7h-11l-38.3,65.7h9.6l8.2-15.1h52l8.2,15.1h9.6L825.8,99.7z M798.4,143.6l21.9-38.3l21.9,38.3
			H798.4z"/>
		<polygon class="st4" points="950.1,99.7 950.1,155.3 950,155.3 884,99.7 875.4,99.7 875.4,165.5 883.7,165.5 883.7,109.4 
			883.7,109.4 949.8,165.5 958.3,165.5 958.3,99.7 		"/>
	</g>
</g>
</svg>
