<?xml version="1.0" encoding="utf-8"?>
<!-- Generator: Adobe Illustrator 27.7.0, SVG Export Plug-In . SVG Version: 6.00 Build 0)  -->
<svg version="1.1" id="Capa_1" xmlns="http://www.w3.org/2000/svg" xmlns:xlink="http://www.w3.org/1999/xlink" x="0px" y="0px"
	 viewBox="0 0 2458 512" style="enable-background:new 0 0 2458 512;" xml:space="preserve">
<style type="text/css">
	.st0{fill:url(#Oval_00000039108495958902947920000012233349579780923056_);}
	.st1{fill:#FFFFFF;}
	.st2{fill:#273444;}
</style>
<g id="Logo_00000127008669113623699550000003611881791186957229_">
	<g id="woot-log_00000021091290555524155140000001422519706758873260_">
		
			<linearGradient id="Oval_00000089550880932572452970000008403435156076482239_" gradientUnits="userSpaceOnUse" x1="0" y1="256" x2="512" y2="256">
			<stop  offset="0" style="stop-color:#B74D90"/>
			<stop  offset="1" style="stop-color:#483382"/>
		</linearGradient>
		
			<circle id="Oval_00000126315975920466123740000003359006849806063267_" style="fill:url(#Oval_00000089550880932572452970000008403435156076482239_);" cx="256" cy="256" r="256"/>
	</g>
</g>
<g>
	<path class="st1" d="M269.2,161.4h-42.8L138.5,313h-0.8c-31.3,0-56.7-25.4-56.7-56.7s25.4-56.7,56.7-56.7h37.8l21.7-37.6h-59.1
		c-52.1,0-94.3,42.2-94.3,94.3c0,26,10.6,49.6,27.6,66.7C84,335.5,100,344.5,118,348.4c6.5,1.4,13.2,2.2,20.2,2.2h22.1L182,313
		l13.9-24h55.9v-37.6h-34.1l51.4-88.7V161.4z"/>
	<path class="st1" d="M440.5,189c-17.1-17.1-40.6-27.6-66.7-27.6h-42.8v0.6v94.2v0h37.6V199h5.7c31.3,0,56.7,25.4,56.7,56.7
		c0,15.7-6.3,29.8-16.6,40.1c-10.3,10.3-24.4,16.6-40.1,16.6h-67.6v-151h-37.6v0.6v188h104.7c52.1,0,94.3-42.2,94.3-94.3
		C468.2,229.7,457.6,206.1,440.5,189z"/>
</g>
<g>
	<g>
		<path class="st2" d="M666.7,365.4c-14.9,0-28.9-2.6-41.9-7.9c-13-5.3-24.4-12.6-34-22c-9.7-9.4-17.2-20.3-22.7-32.9
			c-5.5-12.5-8.2-26.1-8.2-40.6c0-14.5,2.7-28.1,8.2-40.6c5.5-12.5,13.1-23.5,22.8-33c9.8-9.5,21.1-16.8,34-22.1
			c12.9-5.3,26.8-7.9,41.8-7.9c11.1,0,21.8,1.5,32.2,4.6c10.3,3.1,20,7.4,28.9,12.9c8.9,5.6,16.5,12.3,22.8,20.1l-28.1,27.6
			c-7.1-9-15.4-15.7-25-20.2c-9.6-4.5-19.8-6.7-30.7-6.7c-9,0-17.4,1.7-25.3,5c-7.9,3.4-14.6,7.9-20.4,13.8
			c-5.7,5.8-10.2,12.7-13.5,20.5c-3.3,7.9-4.9,16.6-4.9,26.1c0,9.2,1.7,17.8,5,25.7c3.3,7.9,7.9,14.8,13.8,20.7
			c5.8,5.8,12.7,10.4,20.7,13.6c7.9,3.3,16.7,4.9,26.3,4.9c10.5,0,20.4-2.2,29.6-6.6c9.2-4.4,17.2-10.7,24.1-18.9l27,27
			c-6.3,7.7-13.8,14.3-22.5,19.8c-8.7,5.6-18.2,9.8-28.6,12.8S677.2,365.4,666.7,365.4z"/>
		<path class="st2" d="M839.5,365.4c-14.9,0-28.4-3.4-40.5-10.3c-12.1-6.9-21.6-16.2-28.7-28c-7.1-11.8-10.6-24.8-10.6-39.2
			c0-14.5,3.5-27.7,10.6-39.5c7.1-11.8,16.7-21.1,28.7-27.8c12.1-6.8,25.6-10.2,40.5-10.2c14.9,0,28.4,3.4,40.5,10.2
			c12.1,6.8,21.6,16.1,28.7,27.8c7.1,11.8,10.6,24.9,10.6,39.5c0,14.4-3.5,27.4-10.5,39.2c-7,11.8-16.5,21.1-28.6,28
			C868.2,361.9,854.6,365.4,839.5,365.4z M839.5,331.2c7.8,0,14.9-2,21.2-5.9c6.3-3.9,11.3-9.1,14.9-15.6c3.6-6.5,5.5-13.9,5.5-22.1
			c0-8-1.9-15.3-5.6-21.8c-3.7-6.5-8.7-11.7-14.9-15.5c-6.2-3.8-13.2-5.7-20.8-5.7c-7.8,0-14.9,1.9-21.2,5.7
			c-6.3,3.8-11.3,9-14.9,15.5c-3.6,6.5-5.5,13.8-5.5,21.8c0,8.2,1.8,15.6,5.5,22.1c3.6,6.5,8.6,11.7,14.8,15.6
			C824.6,329.3,831.7,331.2,839.5,331.2z"/>
		<path class="st2" d="M1012.6,364.5c-14.2,0-27-3.4-38.5-10.3c-11.5-6.9-20.6-16.1-27.4-27.7c-6.8-11.6-10.2-24.5-10.2-38.9
			c0-14.2,3.4-27.1,10.2-38.8c6.8-11.7,16-20.9,27.7-27.7c11.7-6.8,24.8-10.2,39.3-10.2c7.5,0,14.6,1,21.4,3
			c6.8,2,13.3,4.9,19.4,8.8v-61.1l39.3-6.6v207.6h-38.8v-12.3C1042.9,359.7,1028.7,364.5,1012.6,364.5z M1018.9,330.9
			c7.1,0,13.7-1.2,19.8-3.7c6.1-2.5,11.4-6,15.8-10.6v-58.3c-4.4-4.4-9.7-7.8-15.8-10.2c-6.1-2.4-12.7-3.6-19.8-3.6
			c-8.2,0-15.6,1.9-22.2,5.6s-11.8,8.9-15.6,15.4c-3.8,6.5-5.7,13.8-5.7,21.8c0,8.4,2,15.9,5.9,22.4c3.9,6.5,9.1,11.7,15.6,15.5
			C1003.3,329,1010.7,330.9,1018.9,330.9z"/>
		<path class="st2" d="M1144.1,195.1c-6.1,0-11.4-2.2-15.8-6.6c-4.4-4.4-6.6-9.8-6.6-16.1c0-6.1,2.2-11.3,6.6-15.6
			c4.4-4.3,9.7-6.5,15.8-6.5c6.3,0,11.6,2.2,15.9,6.5c4.3,4.3,6.5,9.5,6.5,15.6c0,6.3-2.2,11.7-6.5,16.1
			C1155.7,192.9,1150.4,195.1,1144.1,195.1z M1124.6,362.5V212.9h39.3v149.6H1124.6z"/>
		<path class="st2" d="M1217.9,362.5V245.7h-33.3v-32.7h33.3v-14.4c0-17,4.9-30,14.8-38.8c9.9-8.8,23.9-13.2,42.1-13.2
			c4,0,8.1,0.2,12.3,0.7c4.2,0.5,7.8,1.2,10.6,2.2v32.7c-3.4-0.8-6.5-1.3-9.2-1.7c-2.7-0.4-5.6-0.6-8.9-0.6
			c-7.3,0-12.8,1.6-16.7,4.7c-3.8,3.2-5.7,8.1-5.7,14.8v13.5h40.5v32.7h-40.5v116.8H1217.9z"/>
		<path class="st2" d="M1337.9,195.1c-6.1,0-11.4-2.2-15.8-6.6c-4.4-4.4-6.6-9.8-6.6-16.1c0-6.1,2.2-11.3,6.6-15.6
			c4.4-4.3,9.7-6.5,15.8-6.5c6.3,0,11.6,2.2,15.9,6.5c4.3,4.3,6.5,9.5,6.5,15.6c0,6.3-2.2,11.7-6.5,16.1
			C1349.5,192.9,1344.2,195.1,1337.9,195.1z M1318.4,362.5V212.9h39.3v149.6H1318.4z"/>
		<path class="st2" d="M1459.9,365.4c-14.5,0-27.7-3.4-39.5-10.2c-11.8-6.8-21.2-16.1-28.1-27.8c-7-11.8-10.5-25-10.5-39.8
			c0-14.5,3.4-27.7,10.3-39.3c6.9-11.7,16.3-21,28.1-27.8c11.9-6.9,25.1-10.3,39.6-10.3c12.1,0,23.5,2.3,34.3,6.9
			c10.8,4.6,20,11.2,27.7,19.8l-23.8,25.6c-5.6-6.1-11.3-10.6-17.4-13.5c-6-2.9-12.6-4.3-19.7-4.3c-7.7,0-14.5,1.9-20.7,5.6
			c-6.1,3.7-10.9,8.9-14.4,15.4c-3.4,6.5-5.2,14-5.2,22.4c0,8,1.8,15.4,5.5,22c3.6,6.6,8.5,11.8,14.6,15.6c6.1,3.8,13.1,5.7,21,5.7
			c6.7,0,13-1.4,18.8-4.3c5.8-2.9,11.4-7.2,16.8-12.9l23.5,24.7c-7.8,8.4-17,15-27.6,19.7C1483,363,1471.8,365.4,1459.9,365.4z"/>
		<path class="st2" d="M1524.8,362.5l82.7-201h48.2l81.5,201h-45.1l-20.4-52.5h-83.3l-20.4,52.5H1524.8z M1601.4,276.4h57.7
			l-28.4-74.1L1601.4,276.4z"/>
		<path class="st2" d="M1751.3,362.5V212.9h39.6v16.7c4.6-6.5,10.3-11.5,17.1-14.9c6.8-3.4,14.4-5.2,22.8-5.2
			c7.5,0.2,12.9,1.2,16.4,3.2v34.7c-3.1-1.3-6.3-2.4-9.6-3.2c-3.4-0.8-6.8-1.1-10.5-1.1c-7.7,0-14.6,2-21,5.9
			c-6.3,3.9-11.4,9.4-15.2,16.5v97H1751.3z"/>
		<path class="st2" d="M1928.7,362.5v-201h77.2c15.1,0,29.1,2.6,41.9,7.8c12.8,5.2,24,12.3,33.6,21.4c9.6,9.1,17.1,19.8,22.5,32
			c5.5,12.3,8.2,25.5,8.2,39.6c0,14.2-2.7,27.3-8,39.5c-5.4,12.2-12.9,22.7-22.5,31.7c-9.7,9-20.9,16.1-33.7,21.2
			c-12.8,5.2-26.8,7.8-41.9,7.8H1928.7z M1970.3,325.5h35c9,0,17.4-1.6,25.1-4.9c7.8-3.3,14.5-7.8,20.4-13.5
			c5.8-5.7,10.3-12.4,13.5-20c3.2-7.6,4.7-15.8,4.7-24.8c0-8.8-1.6-17.1-4.7-24.8c-3.2-7.8-7.7-14.5-13.5-20.4
			c-5.8-5.8-12.6-10.4-20.4-13.6c-7.8-3.3-16-4.9-24.8-4.9h-35.3V325.5z"/>
		<path class="st2" d="M2211.2,365.4c-14.9,0-28.5-3.5-40.6-10.5c-12.2-7-21.8-16.3-28.9-27.8c-7.1-11.6-10.6-24.6-10.6-39.2
			c0-14.4,3.4-27.4,10.2-39.2c6.8-11.8,16-21.1,27.7-28c11.7-6.9,24.6-10.3,38.8-10.3c14.4,0,27.1,3.5,38.3,10.5
			c11.2,7,20,16.5,26.4,28.6c6.4,12.1,9.6,25.8,9.6,41.3v10.3h-110.8c1.7,5.9,4.6,11.3,8.6,16.1c4,4.8,8.9,8.5,14.6,11.1
			c5.7,2.6,12,3.9,18.7,3.9c6.5,0,12.6-1,18.4-3c5.7-2,10.6-4.9,14.6-8.8l25.8,23.5c-9.2,7.5-18.6,12.9-28.3,16.4
			C2234.1,363.7,2223.2,365.4,2211.2,365.4z M2170.7,272.9h72.9c-1.5-5.9-4.1-11.1-7.6-15.6c-3.5-4.5-7.8-8-12.8-10.5
			c-5-2.5-10.3-3.7-16.1-3.7c-6.1,0-11.7,1.2-16.7,3.6c-5,2.4-9.1,5.8-12.5,10.3C2174.7,261.5,2172.2,266.8,2170.7,272.9z"/>
		<path class="st2" d="M2350.4,362.5l-64-149.6h42.8l40.8,99.6l41.1-99.6h41.6l-63.7,149.6H2350.4z"/>
	</g>
</g>
</svg>
